<svg width="22" height="22" viewBox="0 0 22 22" fill="none" xmlns="http://www.w3.org/2000/svg">
<path d="M17.674 0.200802C17.5451 0.071916 17.3702 -0.000488281 17.1879 -0.000488281C17.0056 -0.000488281 16.8308 0.071916 16.7019 0.200802L14.4372 2.46543L19.5344 7.56255L21.799 5.2993C21.863 5.23544 21.9138 5.15957 21.9485 5.07605C21.9831 4.99252 22.001 4.90298 22.001 4.81255C22.001 4.72212 21.9831 4.63258 21.9485 4.54906C21.9138 4.46553 21.863 4.38967 21.799 4.3258L17.674 0.200802ZM18.5622 8.53468L13.4651 3.43755L4.52761 12.3751H4.81223C4.99457 12.3751 5.16944 12.4475 5.29837 12.5764C5.4273 12.7053 5.49973 12.8802 5.49973 13.0626V13.7501H6.18723C6.36957 13.7501 6.54444 13.8225 6.67337 13.9514C6.8023 14.0803 6.87473 14.2552 6.87473 14.4376V15.1251H7.56223C7.74457 15.1251 7.91944 15.1975 8.04837 15.3264C8.1773 15.4553 8.24973 15.6302 8.24973 15.8126V16.5001H8.93723C9.11957 16.5001 9.29444 16.5725 9.42337 16.7014C9.5523 16.8303 9.62473 17.0052 9.62473 17.1876V17.4722L18.5622 8.53468ZM8.29373 18.8032C8.2648 18.7262 8.2499 18.6447 8.24973 18.5626V17.8751H7.56223C7.3799 17.8751 7.20503 17.8026 7.0761 17.6737C6.94717 17.5448 6.87473 17.3699 6.87473 17.1876V16.5001H6.18723C6.0049 16.5001 5.83003 16.4276 5.7011 16.2987C5.57217 16.1698 5.49973 15.9949 5.49973 15.8126V15.1251H4.81223C4.6299 15.1251 4.45503 15.0526 4.3261 14.9237C4.19717 14.7948 4.12473 14.6199 4.12473 14.4376V13.7501H3.43723C3.35504 13.7499 3.27353 13.735 3.19661 13.7061L2.95048 13.9508C2.88496 14.0168 2.83351 14.0954 2.79923 14.1818L0.0492334 21.0568C-0.000776317 21.1817 -0.0130186 21.3186 0.0140241 21.4504C0.0410669 21.5823 0.106205 21.7033 0.201364 21.7984C0.296523 21.8936 0.417518 21.9587 0.549348 21.9858C0.681178 22.0128 0.818045 22.0006 0.942983 21.9506L7.81798 19.2006C7.90442 19.1663 7.983 19.1148 8.04898 19.0493L8.29373 18.8046V18.8032Z" fill="#0A6C91"/>
</svg>
